<svg width="44" height="44" viewBox="0 0 44 44" fill="none" xmlns="http://www.w3.org/2000/svg">
<path fill-rule="evenodd" clip-rule="evenodd" d="M2.75 22C2.75 21.6354 2.89487 21.2856 3.15273 21.0278C3.41059 20.7699 3.76033 20.625 4.125 20.625H36.5558L27.9015 11.9735C27.6433 11.7153 27.4983 11.3652 27.4983 11C27.4983 10.6349 27.6433 10.2847 27.9015 10.0265C28.1597 9.76834 28.5099 9.62329 28.875 9.62329C29.2401 9.62329 29.5903 9.76834 29.8485 10.0265L40.8485 21.0265C40.9766 21.1543 41.0781 21.306 41.1475 21.473C41.2168 21.6401 41.2525 21.8192 41.2525 22C41.2525 22.1809 41.2168 22.36 41.1475 22.527C41.0781 22.6941 40.9766 22.8458 40.8485 22.9735L29.8485 33.9735C29.5903 34.2317 29.2401 34.3768 28.875 34.3768C28.5099 34.3768 28.1597 34.2317 27.9015 33.9735C27.6433 33.7153 27.4983 33.3652 27.4983 33C27.4983 32.6349 27.6433 32.2847 27.9015 32.0265L36.5558 23.375H4.125C3.76033 23.375 3.41059 23.2302 3.15273 22.9723C2.89487 22.7144 2.75 22.3647 2.75 22Z" fill="white"/>
</svg>
