<svg xmlns="http://www.w3.org/2000/svg" version="1.1" xmlns:xlink="http://www.w3.org/1999/xlink" xmlns:svgjs="http://svgjs.dev/svgjs" width="1000" height="1000"><g clip-path="url(#SvgjsClipPath1082)"><rect width="1000" height="1000" fill="#ffffff"></rect><g transform="matrix(4.878048780487805,0,0,4.878048780487805,102.4390243902439,100)"><svg xmlns="http://www.w3.org/2000/svg" version="1.1" xmlns:xlink="http://www.w3.org/1999/xlink" xmlns:svgjs="http://svgjs.dev/svgjs" width="163" height="164"><svg width="163" height="164" viewBox="0 0 163 164" fill="none" xmlns="http://www.w3.org/2000/svg">
<path d="M61.3622 9.61518C64.8068 8.634 67.7774 8.72747 70.2736 9.89569C72.7632 11.0413 74.4619 13.2175 75.3697 16.4244L68.2438 18.4541C67.8602 17.0991 67.1966 16.1289 66.2522 15.5437C65.3304 14.9521 64.2165 14.8423 62.911 15.2142C61.4023 15.6439 60.4218 16.4356 59.9699 17.5894C59.5406 18.7366 59.5657 20.1572 60.0452 21.8509L60.6591 24.019C61.132 25.6901 61.8552 26.9119 62.8277 27.6842C63.8167 28.4275 65.043 28.5907 66.5065 28.1739C67.9474 27.7634 68.9339 27.0798 69.4661 26.1229C69.9982 25.166 70.0724 24.0101 69.6888 22.655L76.5784 20.6927C77.4797 23.8769 77.1908 26.595 75.7117 28.8466C74.2548 31.0919 71.7476 32.7212 68.1902 33.7344C64.2275 34.8631 60.9344 34.703 58.3099 33.2541C55.7084 31.7987 53.8447 29.0837 52.7197 25.109C51.5943 21.1343 51.7573 17.842 53.2082 15.2324C54.6812 12.6162 57.3996 10.7439 61.3622 9.61518Z" fill="black"></path>
<path d="M91.126 13.3237C94.3464 13.7862 96.7543 14.9739 98.3492 16.8867C99.9707 18.7796 100.557 21.2947 100.11 24.4321C99.6617 27.5695 98.3933 29.83 96.3044 31.2139C94.2416 32.5778 91.6 33.0285 88.3796 32.5661C85.1592 32.1036 82.7498 30.9276 81.1519 29.038C79.5535 27.1484 78.9803 24.6233 79.4312 21.4627C79.882 18.3021 81.1389 16.0399 83.2017 14.6759C85.264 13.312 87.9056 12.8613 91.126 13.3237ZM90.4545 18.0297C88.184 17.7037 86.8614 18.8537 86.4863 21.4798L86.2029 23.4667C85.8313 26.0696 86.7807 27.534 89.0512 27.8601C91.3452 28.1894 92.6778 27.0527 93.0494 24.4499L93.3328 22.4629C93.7074 19.8369 92.748 18.3591 90.4545 18.0297Z" fill="black"></path>
<path d="M104.859 37.4737L108.777 17.9835L115.139 21.9933L111.876 33.6203L112.084 33.7514L121.113 25.7596L126.939 29.4322L111.071 41.3898L104.859 37.4737Z" fill="black"></path>
<path d="M138.626 43.4911C140.517 46.3181 141.296 48.9171 140.966 51.2882C140.648 53.6788 139.128 55.7892 136.407 57.6203L135.416 58.2874L127.671 46.7062C126.563 47.4517 125.891 48.2578 125.653 49.1244C125.428 50.0106 125.675 50.9899 126.392 52.062C127.043 53.0369 127.723 53.6114 128.431 53.785C129.153 53.9781 129.853 53.8463 130.533 53.3885L134.308 59.0325C132.442 60.2881 130.508 60.5573 128.507 59.8404C126.506 59.123 124.592 57.4 122.767 54.6704C120.85 51.8044 120.025 49.1372 120.291 46.6687C120.575 44.1871 122.069 42.0374 124.771 40.2195C127.414 38.441 129.931 37.8641 132.322 38.4889C134.713 39.1136 136.814 40.7811 138.626 43.4911ZM135.08 46.2164C133.855 44.3837 132.305 43.9421 130.432 44.8915L134.226 50.5648C135.023 50.0289 135.498 49.3698 135.652 48.5881C135.818 47.8258 135.628 47.0352 135.08 46.2164Z" fill="black"></path>
<path d="M150.182 75.5562C150.274 76.0879 150.287 76.5744 150.221 77.0146C150.178 77.4513 150.145 77.6716 150.122 77.6756L144.345 78.6818L143.961 76.4612C143.712 75.027 143.163 74.0505 142.313 73.5314C141.467 73.0353 140.317 72.9141 138.865 73.1671L130.736 74.5833L129.54 67.6787L147.804 64.4973L148.783 70.1528L146.094 71.0854C147.227 71.3174 148.137 71.838 148.824 72.6475C149.533 73.4534 149.986 74.4228 150.182 75.5562Z" fill="black"></path>
<path d="M128.421 99.4333L131.972 99.2779L134.04 91.0487L130.986 89.2235L132.926 81.506L154.194 95.9984L151.988 104.774L126.413 107.424L128.421 99.4333ZM138.888 93.9448L137.609 99.0324L146.568 98.6827L146.602 98.5459L138.888 93.9448Z" fill="black"></path>
<path d="M138.99 123.065L142.718 126.002L138.403 131.512L134.675 128.576L138.99 123.065ZM122.701 110.232L137.279 121.717L132.963 127.228L118.385 115.743L122.701 110.232Z" fill="black"></path>
<path d="M85.4221 156.749C81.8491 156.99 78.9627 156.279 76.7635 154.616C74.5658 152.976 73.355 150.493 73.1319 147.167L80.5225 146.668C80.6173 148.073 81.0652 149.161 81.8677 149.93C82.6465 150.7 83.7133 151.04 85.068 150.949C86.6323 150.843 87.7552 150.273 88.4363 149.239C89.0943 148.206 89.3642 146.812 89.2463 145.055L89.0953 142.806C88.979 141.073 88.5251 139.727 87.7336 138.769C86.9202 137.835 85.7546 137.42 84.2369 137.523C82.7423 137.624 81.6354 138.086 80.9167 138.912C80.198 139.737 79.8861 140.852 79.9804 142.257L72.8344 142.74C72.6128 139.437 73.4589 136.839 75.3722 134.945C77.2625 133.052 80.0526 131.982 83.7424 131.732C87.8525 131.455 91.0408 132.298 93.3072 134.263C95.5506 136.229 96.8105 139.273 97.0873 143.396C97.3642 147.518 96.5226 150.704 94.5621 152.955C92.5785 155.206 89.5322 156.471 85.4221 156.749Z" fill="black"></path>
<path d="M57.0771 146.914C54.0227 145.79 51.9142 144.126 50.7507 141.922C49.557 139.733 49.5043 137.15 50.5927 134.175C51.681 131.2 53.3903 129.253 55.7204 128.335C58.0205 127.431 60.6977 127.541 63.7521 128.665C66.8064 129.789 68.9194 131.441 70.091 133.623C71.2621 135.805 71.2997 138.394 70.2033 141.392C69.107 144.389 67.4088 146.34 65.1087 147.244C62.8087 148.148 60.1314 148.038 57.0771 146.914ZM58.7096 142.451C60.8627 143.243 62.3949 142.394 63.3062 139.904L63.9953 138.019C64.8981 135.551 64.2732 133.92 62.1195 133.128C59.9444 132.327 58.4051 133.161 57.5024 135.63L56.8133 137.514C55.902 140.005 56.5344 141.65 58.7096 142.451Z" fill="black"></path>
<path d="M48.6503 120.428L40.7776 138.675L35.3866 133.426L40.9879 122.734L40.8116 122.562L30.323 128.496L25.3855 123.689L43.3852 115.302L48.6503 120.428Z" fill="black"></path>
<path d="M16.868 107.5C15.6047 104.34 15.3807 101.636 16.1958 99.3855C17.0021 97.1132 18.9259 95.3655 21.9672 94.142L23.0751 93.6963L28.25 106.64C29.4882 106.141 30.3134 105.493 30.7256 104.695C31.1291 103.875 31.0912 102.866 30.612 101.667C30.1764 100.578 29.6304 99.8745 28.9738 99.5571C28.3085 99.2175 27.5957 99.2009 26.8354 99.5062L24.3133 93.1983C26.3988 92.3597 28.346 92.4995 30.155 93.6183C31.964 94.7372 33.4784 96.8214 34.6981 99.872C35.9787 103.075 36.2333 105.856 35.4618 108.215C34.6685 110.583 32.7621 112.375 29.7426 113.589C26.7882 114.778 24.2066 114.817 21.9977 113.707C19.7888 112.598 18.0789 110.528 16.868 107.5ZM20.9017 105.574C21.7206 107.622 23.1447 108.377 25.1739 107.839L22.6387 101.498C21.7481 101.857 21.1466 102.402 20.8343 103.134C20.5133 103.846 20.5358 104.659 20.9017 105.574Z" fill="black"></path>
<path d="M12.2111 73.7255C12.2313 73.1858 12.3194 72.7078 12.4755 72.2908C12.6082 71.8727 12.6863 71.6645 12.7097 71.665L18.5686 71.8853L18.4844 74.1376C18.43 75.5924 18.7648 76.662 19.4886 77.3471C20.2134 78.0087 21.3125 78.3669 22.786 78.4227L31.0305 78.7326L30.7688 85.7353L12.2449 85.0385L12.4593 79.3026L15.2831 78.9509C14.223 78.4881 13.4411 77.7893 12.9373 76.8541C12.4102 75.9179 12.1681 74.8751 12.2111 73.7255Z" fill="black"></path>
<path d="M38.4463 54.9083L34.9407 54.3197L31.2121 61.9382L33.8204 64.3599L30.3238 71.5045L12.5248 52.893L16.501 44.7692L42.0665 47.5115L38.4463 54.9083ZM27.0705 58.0942L29.3756 53.384L20.5406 51.8582L20.4787 51.9845L27.0705 58.0942Z" fill="black"></path>
<path d="M33.0059 29.5887L29.9688 25.9391L35.3322 21.4484L38.3694 25.098L33.0059 29.5887ZM46.2795 45.5388L34.4008 31.2648L39.7642 26.7742L51.6429 41.0481L46.2795 45.5388Z" fill="black"></path>
</svg></svg></g></g><defs><clipPath id="SvgjsClipPath1082"><rect width="1000" height="1000" x="0" y="0" rx="500" ry="500"></rect></clipPath></defs></svg>